<svg xmlns="http://www.w3.org/2000/svg" xmlns:xlink="http://www.w3.org/1999/xlink" width="351.188" height="291.22" viewBox="0 0 351.188 291.22">
  <defs>
    <clipPath id="clip-path">
      <rect id="Rectangle_1247" data-name="Rectangle 1247" width="351.188" height="291.22" fill="none"/>
    </clipPath>
    <clipPath id="clip-path-2">
      <path id="Path_885" data-name="Path 885" d="M121.83,114.653a10.236,10.236,0,0,1-.919,4.965h6.5a10.72,10.72,0,0,1-.651-4.965Z" transform="translate(-120.911 -114.653)" fill="none"/>
    </clipPath>
    <linearGradient id="linear-gradient" x1="-15.671" y1="32.347" x2="-15.543" y2="32.347" gradientUnits="objectBoundingBox">
      <stop offset="0" stop-color="#ffbc53"/>
      <stop offset="0.081" stop-color="#f8c15d"/>
      <stop offset="0.228" stop-color="#f2c769"/>
      <stop offset="0.435" stop-color="#eecb70"/>
      <stop offset="1" stop-color="#edcc72"/>
    </linearGradient>
  </defs>
  <g id="illust" transform="translate(0)">
    <g id="Group_1434" data-name="Group 1434" transform="translate(0)">
      <g id="Group_1433" data-name="Group 1433" clip-path="url(#clip-path)">
        <path id="Path_829" data-name="Path 829" d="M46.193,279.733l-5.236-9.092a.455.455,0,0,0-.779,0l-5.243,9.208a.451.451,0,0,0,.779.455l5.243-9.208h-.779l5.236,9.092a.451.451,0,0,0,.779-.455" transform="translate(-11.642 -90.279)" fill="#b9beed"/>
        <path id="Path_830" data-name="Path 830" d="M46.193,272.782l-5.236-9.092a.455.455,0,0,0-.779,0L34.935,272.9a.451.451,0,0,0,.779.455l5.243-9.208h-.779l5.236,9.092a.451.451,0,0,0,.779-.455" transform="translate(-11.642 -87.959)" fill="#b9beed"/>
        <path id="Path_831" data-name="Path 831" d="M46.193,265.83l-5.236-9.092a.455.455,0,0,0-.779,0l-5.243,9.208a.451.451,0,0,0,.779.455l5.243-9.208h-.779l5.236,9.092a.451.451,0,0,0,.779-.455" transform="translate(-11.642 -85.638)" fill="#b9beed"/>
        <path id="Path_832" data-name="Path 832" d="M46.193,258.879l-5.236-9.092a.455.455,0,0,0-.779,0L34.935,259a.451.451,0,0,0,.779.455l5.243-9.208h-.779l5.236,9.092a.451.451,0,0,0,.779-.455" transform="translate(-11.642 -83.317)" fill="#b9beed"/>
        <path id="Path_833" data-name="Path 833" d="M358.339,50.356,353.1,41.264a.455.455,0,0,0-.779,0l-5.243,9.208a.451.451,0,0,0,.779.455q2.621-4.6,5.243-9.208h-.779l5.236,9.092a.451.451,0,0,0,.779-.455" transform="translate(-115.851 -13.703)" fill="#b9beed"/>
        <path id="Path_834" data-name="Path 834" d="M358.339,43.405,353.1,34.313a.455.455,0,0,0-.779,0l-5.243,9.208a.451.451,0,0,0,.779.455q2.621-4.6,5.243-9.208h-.779l5.236,9.092a.451.451,0,0,0,.779-.455" transform="translate(-115.851 -11.382)" fill="#b9beed"/>
        <path id="Path_835" data-name="Path 835" d="M358.339,36.453,353.1,27.361a.455.455,0,0,0-.779,0l-5.243,9.208a.451.451,0,0,0,.779.455q2.621-4.6,5.243-9.208h-.779l5.236,9.092a.451.451,0,0,0,.779-.455" transform="translate(-115.851 -9.061)" fill="#b9beed"/>
        <path id="Path_836" data-name="Path 836" d="M358.339,29.5,353.1,20.41a.455.455,0,0,0-.779,0l-5.243,9.208a.451.451,0,0,0,.779.455q2.621-4.6,5.243-9.208h-.779l5.236,9.092a.451.451,0,0,0,.779-.455" transform="translate(-115.851 -6.74)" fill="#b9beed"/>
        <path id="Path_837" data-name="Path 837" d="M521.419,241.578l-5.236-9.092a.455.455,0,0,0-.779,0l-5.243,9.208a.451.451,0,0,0,.779.455l5.243-9.208H515.4l5.236,9.092a.451.451,0,0,0,.779-.455" transform="translate(-170.294 -77.541)" fill="#b9beed"/>
        <path id="Path_838" data-name="Path 838" d="M521.419,234.627l-5.236-9.092a.455.455,0,0,0-.779,0l-5.243,9.208a.451.451,0,0,0,.779.455l5.243-9.208H515.4l5.236,9.092a.451.451,0,0,0,.779-.455" transform="translate(-170.294 -75.221)" fill="#b9beed"/>
        <path id="Path_839" data-name="Path 839" d="M521.419,227.675l-5.236-9.092a.455.455,0,0,0-.779,0l-5.243,9.208a.451.451,0,0,0,.779.455l5.243-9.208H515.4l5.236,9.092a.451.451,0,0,0,.779-.455" transform="translate(-170.294 -72.9)" fill="#b9beed"/>
        <path id="Path_840" data-name="Path 840" d="M521.419,220.724l-5.236-9.092a.455.455,0,0,0-.779,0l-5.243,9.208a.451.451,0,0,0,.779.455l5.243-9.208H515.4l5.236,9.092a.451.451,0,0,0,.779-.455" transform="translate(-170.294 -70.579)" fill="#b9beed"/>
        <path id="Path_841" data-name="Path 841" d="M470.446,23.4a5.95,5.95,0,1,0,5.95,5.95,5.95,5.95,0,0,0-5.95-5.95m0,9.917a3.967,3.967,0,1,1,3.967-3.967,3.967,3.967,0,0,1-3.967,3.967" transform="translate(-155.07 -7.812)" fill="#f48067"/>
        <path id="Path_842" data-name="Path 842" d="M34.732,93.194a5.95,5.95,0,1,0,5.95,5.95,5.95,5.95,0,0,0-5.95-5.95m0,9.917A3.967,3.967,0,1,1,38.7,99.144a3.966,3.966,0,0,1-3.967,3.967" transform="translate(-9.609 -31.112)" fill="#f48067"/>
        <path id="Path_843" data-name="Path 843" d="M186.959,41.2h-.017a.849.849,0,0,1-.849-.849V33.473a.85.85,0,0,1,.849-.85h.017a.85.85,0,0,1,.849.85v6.881a.849.849,0,0,1-.849.849" transform="translate(-62.126 -10.891)" fill="#87e887"/>
        <path id="Path_844" data-name="Path 844" d="M186.959,60.251h-.017a.849.849,0,0,1-.849-.849V52.519a.849.849,0,0,1,.849-.849h.017a.849.849,0,0,1,.849.849V59.4a.849.849,0,0,1-.849.849" transform="translate(-62.126 -17.25)" fill="#87e887"/>
        <path id="Path_845" data-name="Path 845" d="M190.463,48.166v-.017a.849.849,0,0,1,.849-.849h6.882a.849.849,0,0,1,.849.849v.017a.849.849,0,0,1-.849.849h-6.882a.849.849,0,0,1-.849-.849" transform="translate(-63.585 -15.791)" fill="#87e887"/>
        <path id="Path_846" data-name="Path 846" d="M171.417,48.166v-.017a.849.849,0,0,1,.849-.849h6.881a.85.85,0,0,1,.85.849v.017a.85.85,0,0,1-.85.849h-6.881a.849.849,0,0,1-.849-.849" transform="translate(-57.227 -15.791)" fill="#87e887"/>
        <path id="Path_847" data-name="Path 847" d="M463.241,110.194c0,4.726-8.557,19.045-8.557,19.045s-8.557-14.319-8.557-19.045a8.557,8.557,0,1,1,17.113,0" transform="translate(-148.938 -33.931)" fill="#b9beed"/>
        <path id="Path_848" data-name="Path 848" d="M462.064,111.34a6.2,6.2,0,1,1-6.2-6.2,6.2,6.2,0,0,1,6.2,6.2" transform="translate(-150.121 -35.102)" fill="#f7fbfd"/>
        <rect id="Rectangle_1235" data-name="Rectangle 1235" width="232.407" height="172.161" transform="translate(57.355 119.059)" fill="#fff6c2"/>
        <rect id="Rectangle_1236" data-name="Rectangle 1236" width="29.648" height="29.648" transform="translate(74.585 152.83)" fill="#b9beed"/>
        <rect id="Rectangle_1237" data-name="Rectangle 1237" width="29.648" height="29.648" transform="translate(74.585 208.598)" fill="#b9beed"/>
        <rect id="Rectangle_1238" data-name="Rectangle 1238" width="29.648" height="29.648" transform="translate(130.685 152.83)" fill="#b9beed"/>
        <rect id="Rectangle_1239" data-name="Rectangle 1239" width="29.648" height="29.648" transform="translate(130.685 208.598)" fill="#f48067"/>
        <rect id="Rectangle_1240" data-name="Rectangle 1240" width="29.648" height="29.648" transform="translate(186.785 152.83)" fill="#f48067"/>
        <rect id="Rectangle_1241" data-name="Rectangle 1241" width="29.648" height="29.648" transform="translate(186.785 208.598)" fill="#b9beed"/>
        <rect id="Rectangle_1242" data-name="Rectangle 1242" width="29.648" height="29.648" transform="translate(242.885 152.83)" fill="#b9beed"/>
        <rect id="Rectangle_1243" data-name="Rectangle 1243" width="29.648" height="29.648" transform="translate(242.885 208.598)" fill="#b9beed"/>
        <path id="Path_849" data-name="Path 849" d="M125.552,190.72H123.31a4.581,4.581,0,0,1-4.58-4.581V167.154a4.581,4.581,0,0,1,4.58-4.581h2.242a4.581,4.581,0,0,1,4.58,4.581v18.985a4.581,4.581,0,0,1-4.58,4.581" transform="translate(-39.638 -54.274)" fill="#edcc72"/>
        <path id="Path_850" data-name="Path 850" d="M232.152,190.72H229.91a4.581,4.581,0,0,1-4.58-4.581V167.154a4.581,4.581,0,0,1,4.58-4.581h2.242a4.581,4.581,0,0,1,4.58,4.581v18.985a4.581,4.581,0,0,1-4.58,4.581" transform="translate(-75.226 -54.274)" fill="#edcc72"/>
        <path id="Path_851" data-name="Path 851" d="M178.852,190.72H176.61a4.581,4.581,0,0,1-4.58-4.581V167.154a4.581,4.581,0,0,1,4.58-4.581h2.242a4.581,4.581,0,0,1,4.58,4.581v18.985a4.581,4.581,0,0,1-4.58,4.581" transform="translate(-57.432 -54.274)" fill="#edcc72"/>
        <path id="Path_852" data-name="Path 852" d="M285.452,190.72H283.21a4.581,4.581,0,0,1-4.58-4.581V167.154a4.581,4.581,0,0,1,4.58-4.581h2.242a4.581,4.581,0,0,1,4.58,4.581v18.985a4.581,4.581,0,0,1-4.58,4.581" transform="translate(-93.02 -54.274)" fill="#edcc72"/>
        <path id="Path_853" data-name="Path 853" d="M338.752,190.72H336.51a4.581,4.581,0,0,1-4.58-4.581V167.154a4.581,4.581,0,0,1,4.58-4.581h2.242a4.581,4.581,0,0,1,4.58,4.581v18.985a4.581,4.581,0,0,1-4.58,4.581" transform="translate(-110.814 -54.274)" fill="#edcc72"/>
        <path id="Path_854" data-name="Path 854" d="M392.052,190.72H389.81a4.581,4.581,0,0,1-4.58-4.581V167.154a4.581,4.581,0,0,1,4.58-4.581h2.242a4.581,4.581,0,0,1,4.58,4.581v18.985a4.581,4.581,0,0,1-4.58,4.581" transform="translate(-128.608 -54.274)" fill="#edcc72"/>
        <rect id="Rectangle_1244" data-name="Rectangle 1244" width="104.818" height="21.317" transform="translate(167.715 254.631)" fill="#5169d1"/>
        <rect id="Rectangle_1245" data-name="Rectangle 1245" width="104.818" height="5.496" transform="translate(167.715 261.409)" fill="#b9beed"/>
        <rect id="Rectangle_1246" data-name="Rectangle 1246" width="5.329" height="13.04" transform="translate(217.399 262.908)" fill="#b9beed"/>
        <path id="Path_855" data-name="Path 855" d="M116.421,360.685a38.2,38.2,0,1,1-38.2-38.2,38.2,38.2,0,0,1,38.2,38.2" transform="translate(-13.363 -107.661)" fill="#fbccc2"/>
        <path id="Path_856" data-name="Path 856" d="M99.446,330.043a4.167,4.167,0,1,1-4.167-4.167,4.167,4.167,0,0,1,4.167,4.167" transform="translate(-30.417 -108.793)" fill="#5169d1"/>
        <path id="Path_857" data-name="Path 857" d="M99.446,425.435a4.167,4.167,0,1,1-4.167-4.167,4.167,4.167,0,0,1,4.167,4.167" transform="translate(-30.417 -140.639)" fill="#5169d1"/>
        <path id="Path_858" data-name="Path 858" d="M47.583,373.572a4.167,4.167,0,1,1-4.167,4.167,4.167,4.167,0,0,1,4.167-4.167" transform="translate(-14.494 -124.716)" fill="#5169d1"/>
        <path id="Path_859" data-name="Path 859" d="M142.975,373.572a4.167,4.167,0,1,1-4.167,4.167,4.167,4.167,0,0,1,4.167-4.167" transform="translate(-46.341 -124.716)" fill="#5169d1"/>
        <path id="Path_860" data-name="Path 860" d="M136.806,358.63a2.518,2.518,0,1,1,.98-3.423,2.517,2.517,0,0,1-.98,3.423" transform="translate(-44.424 -118.152)" fill="#5169d1"/>
        <path id="Path_861" data-name="Path 861" d="M57.5,402.642a2.518,2.518,0,1,1,.98-3.423,2.517,2.517,0,0,1-.98,3.423" transform="translate(-17.948 -132.845)" fill="#5169d1"/>
        <path id="Path_862" data-name="Path 862" d="M122.157,341.351a2.518,2.518,0,1,1-.8-3.47,2.518,2.518,0,0,1,.8,3.47" transform="translate(-39.229 -112.672)" fill="#5169d1"/>
        <path id="Path_863" data-name="Path 863" d="M73.971,418.193a2.517,2.517,0,1,1-.8-3.471,2.517,2.517,0,0,1,.8,3.471" transform="translate(-23.143 -138.325)" fill="#5169d1"/>
        <path id="Path_864" data-name="Path 864" d="M115.736,419.309a2.518,2.518,0,1,1,3.423.98,2.517,2.517,0,0,1-3.423-.98" transform="translate(-38.532 -138.736)" fill="#5169d1"/>
        <path id="Path_865" data-name="Path 865" d="M71.724,340a2.518,2.518,0,1,1,3.423.98,2.517,2.517,0,0,1-3.423-.98" transform="translate(-23.839 -112.261)" fill="#5169d1"/>
        <path id="Path_866" data-name="Path 866" d="M109.816,367.32A24.955,24.955,0,1,1,84.86,342.365a24.955,24.955,0,0,1,24.955,24.955" transform="translate(-19.999 -114.297)" fill="#f7fbfd"/>
        <path id="Path_867" data-name="Path 867" d="M133.015,404.66a2.518,2.518,0,1,1,3.47-.8,2.518,2.518,0,0,1-3.47.8" transform="translate(-44.013 -133.542)" fill="#5169d1"/>
        <path id="Path_868" data-name="Path 868" d="M56.173,356.475a2.518,2.518,0,1,1,3.471-.8,2.518,2.518,0,0,1-3.471.8" transform="translate(-18.359 -117.455)" fill="#5169d1"/>
        <path id="Path_869" data-name="Path 869" d="M98.753,369.218H93.2v-10.1a2.75,2.75,0,0,1,2.75-2.751H96a2.75,2.75,0,0,1,2.75,2.751Z" transform="translate(-31.113 -118.973)" fill="#1e47b1"/>
        <path id="Path_870" data-name="Path 870" d="M86.851,376.932l3.928,3.928-14.3,14.285a2.75,2.75,0,0,1-3.889,0l-.039-.039a2.75,2.75,0,0,1,0-3.889Z" transform="translate(-23.951 -125.837)" fill="#1e47b1"/>
        <path id="Path_871" data-name="Path 871" d="M99.5,377.681a4.283,4.283,0,1,1-4.283-4.283,4.282,4.282,0,0,1,4.283,4.283" transform="translate(-30.359 -124.658)" fill="#1e47b1"/>
        <path id="Path_872" data-name="Path 872" d="M98.45,378.739a2.17,2.17,0,1,1-2.17-2.17,2.171,2.171,0,0,1,2.17,2.17" transform="translate(-31.418 -125.716)" fill="#5169d1"/>
        <path id="Path_873" data-name="Path 873" d="M437.585,281.492c-.863-1.657-1.358-3.489-2.085-5.2-.37-.87-.564-2.074-1.5-2.573-1.175-.625-1.9.033-1.739,1.16a18.669,18.669,0,0,0,1.611,5.033,10.718,10.718,0,0,0,1.21,2.507,1.822,1.822,0,0,0,1.434.548c.668-.149.668-.68,1.068-1.067Z" transform="translate(-144.3 -91.299)" fill="#edcc72"/>
        <path id="Path_874" data-name="Path 874" d="M471.937,350.627c1.17,7.278,6.644,35.631,11.381,50.569a22.633,22.633,0,0,0,3.937.326c-.534.067-2.172-18.047-2.172-27.6,0-5.772,0-25.8-2.745-31.049Z" transform="translate(-157.555 -114.467)" fill="#5169d1"/>
        <path id="Path_875" data-name="Path 875" d="M472.809,267.637c-3.516.484-4.381,5.331-5.53,8.01-.216.5-2.1,2.473-1.057,3.1,1.106.67-1.1,3.825.173,4.694a12.135,12.135,0,0,0,4.312.758c1.108,1.562-1.982,5.225-2.775,5.775l7.2-.813a3.3,3.3,0,0,1,1.1-3.989l3.875-5.694Z" transform="translate(-155.543 -89.35)" fill="#edcc72"/>
        <path id="Path_876" data-name="Path 876" d="M486.86,278.661c0,3.042-.024,3.495.091,6.775a83.307,83.307,0,0,0,1.238,8.907c.948,6.642,3.331,13.39-4.644,16.732a6.573,6.573,0,0,1-.691-3.014c.213-1.134-.722-2.366-.712-3.529a26.6,26.6,0,0,0-.514-6.313c-.622-2.493-2.16-2.868-2.839-5.31-.479-1.722-.018-6.269,1.19-7.682Z" transform="translate(-159.779 -93.03)" fill="#2e1a14"/>
        <path id="Path_877" data-name="Path 877" d="M463.788,349.349a177.259,177.259,0,0,0-3.052,23.078c-.31,5.3,3.142,26.015,4.881,30.822,1.376.145,2.753.409,4.132.578-.677-.083-1.527-20.4-.821-24.343.664-3.7,1.279-9.327,2.355-12.921a169.066,169.066,0,0,1,6.369-18.1Z" transform="translate(-153.809 -116.333)" fill="#5169d1"/>
        <path id="Path_878" data-name="Path 878" d="M464.432,332.89l9.175.5c2.277.349,7.178-.074,7.178-2.258,0,0-.986-4.063-1.745-8.749-.775-4.787-.474-21.155-3.225-23.222l-6.546.022a1.526,1.526,0,0,0-.867.266c-9.96,6.915-3.97,27.8-3.97,33.44" transform="translate(-154.453 -99.874)" fill="#f48067"/>
        <path id="Path_879" data-name="Path 879" d="M477.67,282.913c.107-.025-3.419.952-2.579,2.735.6,1.27,2.248.9,3.18.319,1.174-.735,1.958-2.454,2.864-3.564a9.079,9.079,0,0,0,2.159-3.524c.769-2.772.5-5.473-1.894-7.4a20.469,20.469,0,0,0-3.2-2.465c-6.822-3.441-9.328.017-9.6,1.5a7.746,7.746,0,0,0,.446,3.266c-.21-.371,1.569-2.06,1.729-1.346a11.489,11.489,0,0,0,1.242,2.992s.474-1.791.958-1.606c1.2.457,1.692.683,1.986,1.6,1.254,3.92,3.908,1.7,3.429,3.7-.525,2.193-.3,3.143-1.51,3.885-.8.492-2.452,1.887-1.208,2.773Z" transform="translate(-156.422 -89.316)" fill="#2e1a14"/>
        <path id="Path_880" data-name="Path 880" d="M477.3,284.6a4.157,4.157,0,0,1-1.544,1.865c-1.256.7-1.451,1.378-1.54,1.87a5.888,5.888,0,0,1-2.773,3.948,18.5,18.5,0,0,0-3.919,2.2,7.866,7.866,0,0,0-2.709,7.9,9.036,9.036,0,0,1,4.465-6.348c1.9-1.1,3.339-1.065,5.41-1.709Z" transform="translate(-155.112 -95.013)" fill="#2e1a14"/>
        <path id="Path_881" data-name="Path 881" d="M463.475,304.434c-1.578.847-2.844.7-6.141.759-2.088.039-4.084-.963-5.764-.947-2.048.02-8.136-1.665-9.449-2.613-2.391-1.725-3.494-4.834-5.074-8.641-.629-1.516-1.4-6.621-1.1-7.13l2.651-.878c.8.66,1.369,2.5,4.56,8.905a10.917,10.917,0,0,0,2.5,2.575c1.659.569,8.75-.464,12.247-.7,3.884-.259,8.742,2.953,7.656,6.238a3.379,3.379,0,0,1-2.086,2.429" transform="translate(-145.517 -95.141)" fill="#f48067"/>
        <path id="Path_882" data-name="Path 882" d="M476.567,275.094c-.316-.518-.465.674-.446.881a5.554,5.554,0,0,1,.219,1.165c-.345-.081-.893-1.226-1.11-1.554a2.189,2.189,0,0,1-.367-.8c-.068-.361.1-.587.1-.935Z" transform="translate(-158.526 -91.423)" fill="#2e1a14"/>
        <path id="Path_883" data-name="Path 883" d="M464.594,431.237l.713-.8a.689.689,0,0,1,.514-.23h2.621a.688.688,0,0,1,.642.44l.219.564a5.925,5.925,0,0,1,.4,2.244l-.01.626a.582.582,0,0,1-.582.572h-9.556a.581.581,0,0,1-.581-.582v-.017a1.437,1.437,0,0,1,1.043-1.382l4.172-1.184a.855.855,0,0,0,.406-.254" transform="translate(-153.227 -143.624)" fill="#2a2f21"/>
        <path id="Path_884" data-name="Path 884" d="M485.254,431.237l.713-.8a.689.689,0,0,1,.514-.23H489.1a.69.69,0,0,1,.643.44l.219.564a5.938,5.938,0,0,1,.4,2.244l-.011.626a.582.582,0,0,1-.582.572h-9.556a.582.582,0,0,1-.582-.582v-.017a1.437,1.437,0,0,1,1.044-1.382l4.172-1.184a.861.861,0,0,0,.406-.254" transform="translate(-160.123 -143.624)" fill="#2a2f21"/>
      </g>
    </g>
    <g id="Group_1436" data-name="Group 1436" transform="translate(80.545 76.376)">
      <g id="Group_1435" data-name="Group 1435" clip-path="url(#clip-path-2)">
        <rect id="Rectangle_1248" data-name="Rectangle 1248" width="5.182" height="6.668" transform="translate(-0.167 4.96) rotate(-88.069)" fill="url(#linear-gradient)"/>
      </g>
    </g>
    <g id="Group_1438" data-name="Group 1438" transform="translate(0)">
      <g id="Group_1437" data-name="Group 1437" clip-path="url(#clip-path)">
        <path id="Path_886" data-name="Path 886" d="M125.96,108.2l-1.927,1.334a2.653,2.653,0,0,1-3.067,0L119.04,108.2a7.582,7.582,0,0,1-3.11-6.25V93.956h13.139v7.992a7.582,7.582,0,0,1-3.11,6.25" transform="translate(-38.703 -31.367)" fill="#edcc72"/>
        <path id="Path_887" data-name="Path 887" d="M129.543,152.6H110.5l-.14-8.115-.923-4.912c-.825-5.822-2.06-15.3,1.639-18a41.075,41.075,0,0,1,5.109-1.368,4.851,4.851,0,0,1,1.027-.195h5.279c.336,0,5.442.567,6.922,1.655,3.7,2.7,1.381,10.787.838,16.942l-.784,6.32Z" transform="translate(-36.241 -40.064)" fill="#b9beed"/>
        <path id="Path_888" data-name="Path 888" d="M100.665,175.254c-.747,0-1.494-.007-2.241,0a11.126,11.126,0,0,0-2.457.544,19.606,19.606,0,0,0-4.8,1.561c-1.427.795-3.073,2.187-2.786,4.016.3,1.875,2.831,1.762,4.209,1.278,1.68-.59,3.383-.907,5.021-1.632.732-.324,1.779-.585,2.507-.917,1.453-.663.96-.773,1.768-.711Z" transform="translate(-29.495 -58.507)" fill="#0c110b"/>
        <path id="Path_889" data-name="Path 889" d="M147.128,177.092c.747,0,1.494-.007,2.241,0a11.126,11.126,0,0,1,2.457.544,19.621,19.621,0,0,1,4.8,1.561c1.426.795,3.073,2.187,2.785,4.016-.3,1.875-2.831,1.762-4.209,1.278-1.68-.59-3.383-.907-5.021-1.632-.732-.324-1.779-.585-2.507-.917-1.453-.663-.96-.773-1.767-.711Z" transform="translate(-48.711 -59.121)" fill="#0c110b"/>
        <path id="Path_890" data-name="Path 890" d="M115.222,99.961a8.244,8.244,0,0,1-.093-1.515c0-.292-.013-.59.008-.881.017-.24-.044-2.242.025-3.023a3.992,3.992,0,0,1,.926-2.346,2.517,2.517,0,0,1,.935-.709c1.142-.43-.178,1.077.215,1.035a7.014,7.014,0,0,0,2.362-1.5c.364.039-.356,1.827-.271,1.849a9.091,9.091,0,0,0,6.906-1.241c.422-.3-.061,1.232.487,1.861.474.544,1.254.392,1.293,1.111.11,2.06.009,3.5-.005,5.652a10.155,10.155,0,0,0,.646-10.843c.309-.077.991-.212,1.3-.289-.587-1.9-3.587-2.725-5.566-2.554a2.03,2.03,0,0,1,1.178-.821c-4.092-1.6-7.763,2.031-7.905,1.979a5.413,5.413,0,0,0-2.055.194,3.77,3.77,0,0,0-1.758,1.939,11.252,11.252,0,0,0-.551,4.074,21.084,21.084,0,0,0,.7,4.1,4.3,4.3,0,0,0,.567,1.29Z" transform="translate(-37.815 -28.488)" fill="#0c110b"/>
        <path id="Path_891" data-name="Path 891" d="M106.629,174.008l-1.27-4.533,31.051-11.281c10.411-2.917,13.023,6.4,2.611,9.32Z" transform="translate(-35.174 -52.626)" fill="#f48067"/>
        <path id="Path_892" data-name="Path 892" d="M127.366,175.584l1.27-4.533L97.585,159.77c-10.412-2.917-13.023,6.4-2.611,9.32Z" transform="translate(-29.495 -53.152)" fill="#f48067"/>
        <path id="Path_893" data-name="Path 893" d="M132.191,135.053v11.223l-6.75,1.325-.023.044V136.422l.023-.044Z" transform="translate(-41.87 -45.087)" fill="#1e47b1"/>
        <path id="Path_894" data-name="Path 894" d="M122.025,136.422v11.224L122,147.6l-6.75-1.325V135.053l6.75,1.325Z" transform="translate(-38.477 -45.087)" fill="#1e47b1"/>
        <path id="Path_895" data-name="Path 895" d="M125.644,137.042v11.223l-.452.044-.452-.044V137.042l.452.044Z" transform="translate(-41.644 -45.751)" fill="#2b2b72"/>
        <path id="Path_896" data-name="Path 896" d="M112.879,144.742c.951-.885,6.373-3.86,6.664-.8.18,1.9-5.213,3.483-6.66,3.633Z" transform="translate(-37.684 -47.604)" fill="#edcc72"/>
        <path id="Path_897" data-name="Path 897" d="M107,122.354c-4.112,1.6-7.411,11.469-9.1,15.642-1.28,3.157-2.337,5.915-.747,7.5.777.777,10.836-4.254,11.4-4.621.8-.524-1.312-3.263-1.312-3.263-2.588.608-4.693,1.54-4.241,1.088.468-.468,3.2-3.517,3.2-3.517Z" transform="translate(-32.166 -40.847)" fill="#b9beed"/>
        <path id="Path_898" data-name="Path 898" d="M135.82,144.742c-.951-.885-6.373-3.86-6.664-.8-.18,1.9,5.213,3.483,6.66,3.633Z" transform="translate(-43.117 -47.604)" fill="#edcc72"/>
        <path id="Path_899" data-name="Path 899" d="M138.835,122.354c4.112,1.6,7.411,11.469,9.1,15.642,1.28,3.157,2.337,5.915.747,7.5-.778.777-10.836-4.254-11.4-4.621-.8-.524,1.312-3.263,1.312-3.263,2.588.608,3.858,1.44,3.406.987-.468-.468-2.368-3.416-2.368-3.416Z" transform="translate(-45.772 -40.847)" fill="#b9beed"/>
      </g>
    </g>
  </g>
</svg>
